<?xml version="1.0"?>
<svg  data-name="Layer 1" id="Layer_1"    xmlns="http://www.w3.org/2000/svg" width="300" height="80" ><path fill="#0231ed" d="M15.53,54.85l2.7,0.75l0,2.4l-9.63,0l0-2.4l2.4-0.75l0-16.86l-2.4-0.6l0-2.4l6.93-0.24l0,20.1z M36.1553,50.89l-9.96,0c0.18,2.4,1.56,3.81,3.63,3.81c2.49,0,5.04-1.41,5.04-1.41l1.29,2.49s-3,2.52-6.84,2.52c-5.16,0-7.8-3-7.8-8.1c0-5.25,2.97-8.7,8.01-8.7c4.47,0,6.81,2.76,6.81,7.05c0,1.14-0.18,2.25-0.18,2.34z M26.2553,48.1l5.43,0c0-1.71-0.72-3-2.46-3c-1.68,0-2.73,1.23-2.97,3z M50.7506,58l-0.54-1.95s-2.31,2.25-4.86,2.25c-2.91,0-4.68-1.71-4.68-4.71c0-3.54,2.67-4.95,7.23-4.95l2.1,0l0-1.65c0-1.53-0.81-2.19-2.31-2.19c-1.53,0-2.64,0.45-2.64,0.45l-0.45,1.89l-2.7,0l-0.21-4.44s3.63-1.2,6.51-1.2c4.56,0,6.3,1.59,6.3,5.94l0,7.41l2.25,0.54l0,2.4z M50.0006,51.19l-1.71,0c-2.34,0-3.27,0.6-3.27,1.95c0,1.14,0.63,1.8,1.77,1.8c1.59,0,3.21-1.74,3.21-1.74l0-2.01z M66.9359,41.8l0.27,2.07s2.16-2.37,4.17-2.37c1.65,0,2.79,0.54,2.79,0.54l-0.24,5.76l-2.7,0l-0.45-2.55c-1.74,0-3.24,1.68-3.24,1.68l0,7.92l3,0.75l0,2.4l-9.9,0l0-2.4l2.4-0.75l0-9.75l-2.4-0.75l0-2.4z M83.8112,41.8l0.21,2.07s2.85-2.31,5.52-2.31c2.91,0,4.56,2.07,4.56,5.34l0,7.95l2.1,0.75l0,2.4l-8.25,0l0-2.4l1.65-0.75l0-7.14c0-1.38-0.78-2.4-2.04-2.4c-1.86,0-3.21,1.71-3.21,1.71l0,7.83l1.65,0.75l0,2.4l-8.55,0l0-2.4l2.4-0.75l0-9.75l-2.4-0.75l0-2.4z M114.7265,50.89l-9.96,0c0.18,2.4,1.56,3.81,3.63,3.81c2.49,0,5.04-1.41,5.04-1.41l1.29,2.49s-3,2.52-6.84,2.52c-5.16,0-7.8-3-7.8-8.1c0-5.25,2.97-8.7,8.01-8.7c4.47,0,6.81,2.76,6.81,7.05c0,1.14-0.18,2.25-0.18,2.34z M104.8265,48.1l5.43,0c0-1.71-0.72-3-2.46-3c-1.68,0-2.73,1.23-2.97,3z M125.3918,41.8l0.27,2.07s2.16-2.37,4.17-2.37c1.65,0,2.79,0.54,2.79,0.54l-0.24,5.76l-2.7,0l-0.45-2.55c-1.74,0-3.24,1.68-3.24,1.68l0,7.92l3,0.75l0,2.4l-9.9,0l0-2.4l2.4-0.75l0-9.75l-2.4-0.75l0-2.4z M138.6971,52.75l0.24,1.95s1.05,0.3,2.52,0.3c1.65,0,2.46-0.51,2.46-1.47c0-2.46-8.01-1.56-8.01-6.9c0-3.75,3-5.13,6.18-5.13c2.7,0,5.58,0.9,5.58,0.9l-0.12,4.5l-2.55,0l-0.45-1.8s-0.87-0.3-2.07-0.3c-1.29,0-2.07,0.54-2.07,1.53c0,2.43,8.01,1.38,8.01,6.57c0,3.45-2.79,5.4-6.9,5.4c-2.85,0-5.52-0.66-5.52-0.66l0-4.89l2.7,0z"/><path fill="#121211" d="M155.07,40.26l0.208,1.456c0.78-0.728,2.158-1.716,3.952-1.716c3.77,0,5.59,2.73,5.59,6.76c0,4.42-2.21,7.54-7.02,7.54c-0.858,0-1.638-0.156-2.34-0.364l0,4.134l2.73,0.52l0,1.43l-7.41,0l0-1.43l2.08-0.52l0-15.73l-2.21-0.52l0-1.43z M155.46,43.9l0,7.8s0.78,0.52,2.73,0.52c3.016,0,3.9-2.34,3.9-5.2s-1.04-4.94-3.38-4.94s-3.25,1.82-3.25,1.82z M175.4436,40c3.9,0,6.11,2.73,6.11,6.89c0,4.42-2.6,7.41-6.5,7.41s-6.24-2.34-6.24-7.02c0-4.42,2.73-7.28,6.63-7.28z M175.3136,42.08c-2.6,0-3.77,1.69-3.77,5.07c0,3.12,1.04,5.07,3.64,5.07s3.64-1.82,3.64-5.2c0-2.86-0.91-4.94-3.51-4.94z M187.1072,35.97c0-1.17,0.78-1.82,1.69-1.82c1.04,0,1.69,0.52,1.69,1.82c0,1.17-0.91,1.82-1.69,1.82c-1.04,0-1.69-0.65-1.69-1.82z M192.1772,52.61l0,1.43l-6.76,0l0-1.43l2.21-0.65l0-9.62l-2.21-0.52l0-1.43l4.81-0.13l0,11.7z M200.2008,40.26l0.234,1.846c0.624-0.546,2.678-2.106,4.836-2.106c2.86,0,4.16,1.82,4.16,4.68l0,7.28l1.95,0.65l0,1.43l-6.24,0l0-1.43l1.69-0.65l0-7.02c0-1.82-0.65-2.73-2.34-2.73c-2.21,0-3.77,2.08-3.77,2.08l0,7.67l1.69,0.65l0,1.43l-6.5,0l0-1.43l2.21-0.65l0-9.62l-2.21-0.52l0-1.43z M223.4344,40.39l0,1.95l-3.77,0l0,8.346c0,1.196,0.572,1.586,1.3,1.586c0.624,0,1.352-0.286,2.028-0.65l0.702,1.378c-1.17,0.858-2.34,1.3-3.64,1.3c-1.56,0-2.99-0.858-2.99-3.77l0-8.19l-2.6,0l0-1.69l2.6-0.26l0-3.276l2.6-0.52l0,3.796l3.77,0z"/></svg>
