<svg xmlns="http://www.w3.org/2000/svg" width="50" height="50" viewBox="0 0 50 50">
  <style>
    .key {
      fill: #FF5722; /* Deep Orange */
    }
    .circle {
      fill: #3F51B5; /* Indigo */
    }
    .url {
      fill: #4CAF50; /* Green */
      font-family: Arial;
      font-size: 8px;
    }
  </style>

  <!-- Key representation -->
  <path class="key" d="M20 5c-1.1 0-2 .9-2 2s.9 2 2 2 2-.9 2-2-.9-2-2-2zM15 12c-1.1 0-2 .9-2 2s.9 2 2 2 2-.9 2-2-.9-2-2-2zM5 15h10c1.1 0 2 .9 2 2v10c0 1.1-.9 2-2 2H5c-1.1 0-2-.9-2-2V17c0-1.1.9-2 2-2zm20-5c-1.1 0-2 .9-2 2v15c0 1.1.9 2 2 2s2-.9 2-2V12c0-1.1-.9-2-2-2zm3 10h-5v-5h5v5zm-2-10c-1.1 0-2 .9-2 2v5h-2V7c0-1.1.9-2 2-2h5c1.1 0 2 .9 2 2s-.9 2-2 2h-5z"/>

</svg>