<svg version="1.2" xmlns="http://www.w3.org/2000/svg" viewBox="0 0 42 36" fill="#FFFFFF">
  <defs>
    <filter id="shadow" filterUnits="userSpaceOnUse">
      <feDropShadow dx="1px" dy="2px" flood-color="#000000" flood-opacity="0.2" stdDeviation="2" />
    </filter>
  </defs>
  <path
    d="M7.49539,3.0037v-1.49622h5.9983v1.49622zM2.62247,3.0037c-0.69774,-0.01125 -1.37297,0.27 -1.85688,0.77624c-0.49517,0.48374 -0.77652,1.14748 -0.76526,1.84497v9.74233c-0.01125,0.69749 0.27009,1.37248 0.77652,1.85622c0.48392,0.50624 1.14789,0.78749 1.84563,0.77624h0.75401v-14.99599zM15.0017,3.0037v-1.87872c0,-0.61874 -0.50642,-1.12498 -1.12538,-1.12498h-6.75231c-0.61896,0 -1.12538,0.50624 -1.12538,1.12498v1.87872h-1.49676v14.99599h11.9966v-14.99599zM21,5.6249c-0.01125,-1.43998 -1.18165,-2.60995 -2.62215,-2.6212h-0.75401v14.99599h0.75401c1.44049,-0.01125 2.61089,-1.18123 2.62215,-2.6212v-9.75358z"
    style="filter:url(#shadow);" />
</svg>
