<svg id="Layer_1" data-name="Layer 1" xmlns="http://www.w3.org/2000/svg" viewBox="0 0 40 46.64" fill="#FFFFFF">
  <defs>
    <filter id="shadow" filterUnits="userSpaceOnUse">
      <feDropShadow dx="1px" dy="2px" flood-color="#000000" flood-opacity="0.2" stdDeviation="2" />
    </filter>
  </defs>
  <path
    d="M20.43,8.6h4.18a1.25,1.25,0,0,0,1.25-1.25V3.19a1.25,1.25,0,0,0-1.25-1.25H20.43a1.21,1.21,0,0,0-.82.41,1.23,1.23,0,0,0-.36.89V4.49h-2.5A1.69,1.69,0,0,0,15,6.1v6.66h-2.5V11.51a1.25,1.25,0,0,0-1.25-1.25H7.11a1.25,1.25,0,0,0-1.25,1.25v4.18a1.26,1.26,0,0,0,1.25,1.25h4.18a1.26,1.26,0,0,0,1.25-1.25V14.44H15V21.1a1.68,1.68,0,0,0,1.66,1.66h2.5V24a1.25,1.25,0,0,0,1.25,1.25h4.16A1.25,1.25,0,0,0,25.86,24V19.85a1.25,1.25,0,0,0-1.25-1.25H20.43a1.26,1.26,0,0,0-1.25,1.25V21.1h-2.5V14.44h2.5v1.25a1.26,1.26,0,0,0,1.25,1.25h4.18a1.26,1.26,0,0,0,1.25-1.25V11.52a1.26,1.26,0,0,0-1.25-1.25H20.43a1.26,1.26,0,0,0-1.25,1.25v1.25h-2.5V6.1h2.5V7.35A1.26,1.26,0,0,0,20.43,8.6Z"
    transform="translate(-5.86 -1.94)" style="filter:url(#shadow);" />
</svg>
