<svg id="Layer_1" data-name="Layer 1" xmlns="http://www.w3.org/2000/svg" viewBox="0 0 200 214.34" fill="#FFFFFF">
  <defs>
    <filter id="shadow" filterUnits="userSpaceOnUse">
      <feDropShadow dx="1px" dy="2px" flood-color="#000000" flood-opacity="0.2" stdDeviation="2" />
    </filter>
  </defs>
  <path
    d="M167.12,74.65H89.32a11.1,11.1,0,0,0-11.1,11.1v85a11.1,11.1,0,0,0,11.1,11.1h77.8a11.1,11.1,0,0,0,11.1-11.1v-85A11.1,11.1,0,0,0,167.12,74.65ZM89.63,94.91A3.36,3.36,0,0,1,93,91.55h7.27a3.35,3.35,0,0,1,3.36,3.36v7.27a3.36,3.36,0,0,1-3.36,3.37H93a3.37,3.37,0,0,1-3.37-3.37Zm0,29.49A3.37,3.37,0,0,1,93,121h7.27a3.36,3.36,0,0,1,3.36,3.37v7.27a3.35,3.35,0,0,1-3.36,3.36H93a3.36,3.36,0,0,1-3.37-3.36Zm77,36.76a3.36,3.36,0,0,1-3.36,3.36H93a3.36,3.36,0,0,1-3.37-3.36v-7.27A3.37,3.37,0,0,1,93,150.52h70.29a3.37,3.37,0,0,1,3.36,3.37Zm0-29.49a3.35,3.35,0,0,1-3.36,3.36H113.21a3.36,3.36,0,0,1-3.37-3.36V124.4a3.37,3.37,0,0,1,3.37-3.37h50.13a3.36,3.36,0,0,1,3.36,3.37Zm0-29.49a3.36,3.36,0,0,1-3.36,3.37H113.21a3.37,3.37,0,0,1-3.37-3.37V94.91a3.36,3.36,0,0,1,3.37-3.36h50.13a3.35,3.35,0,0,1,3.36,3.36Z"
    transform="translate(-78.22 -74.65)" style="filter:url(#shadow);" />
</svg>
