<svg id="Layer_1" data-name="Layer 1" xmlns="http://www.w3.org/2000/svg" viewBox="0 0 86.7 86.8"><defs><style>.cls-1{fill:#066fe0;}.cls-2{fill:#ffa000;}.cls-3{fill:#55c6fa;}.cls-4{fill:#05b59b;}.cls-5{fill:#fbc02d;}.cls-6{fill:#0dcf6c;}.cls-7{fill:#8f62e1;}.cls-8{fill:#ea686e;}.cls-9{fill:#5b6a8c;}</style></defs><path class="cls-1" d="M56.6,38.8H43.4a4.59,4.59,0,0,0-4.6,4.6V56.7a4.65,4.65,0,0,0,4.6,4.6H56.6a4.59,4.59,0,0,0,4.6-4.6V43.3A4.57,4.57,0,0,0,56.6,38.8Z" transform="translate(-6.7 -6.6)"/><path class="cls-2" d="M56.6,6.6H43.4a4.59,4.59,0,0,0-4.6,4.6V24.5a4.65,4.65,0,0,0,4.6,4.6H56.6a4.59,4.59,0,0,0,4.6-4.6V11.2A4.65,4.65,0,0,0,56.6,6.6Z" transform="translate(-6.7 -6.6)"/><path class="cls-3" d="M88.7,38.8H75.6A4.59,4.59,0,0,0,71,43.4V56.7a4.65,4.65,0,0,0,4.6,4.6H88.8a4.59,4.59,0,0,0,4.6-4.6V43.3A4.59,4.59,0,0,0,88.7,38.8Z" transform="translate(-6.7 -6.6)"/><path class="cls-4" d="M56.6,70.9H43.4a4.59,4.59,0,0,0-4.6,4.6V88.8a4.65,4.65,0,0,0,4.6,4.6H56.6a4.59,4.59,0,0,0,4.6-4.6V75.5A4.65,4.65,0,0,0,56.6,70.9Z" transform="translate(-6.7 -6.6)"/><path class="cls-5" d="M88.7,6.6H75.6A4.59,4.59,0,0,0,71,11.2V24.5a4.65,4.65,0,0,0,4.6,4.6H88.8a4.59,4.59,0,0,0,4.6-4.6V11.2A4.67,4.67,0,0,0,88.7,6.6Z" transform="translate(-6.7 -6.6)"/><path class="cls-6" d="M88.7,70.9H75.6A4.59,4.59,0,0,0,71,75.5V88.8a4.65,4.65,0,0,0,4.6,4.6H88.8a4.59,4.59,0,0,0,4.6-4.6V75.5A4.67,4.67,0,0,0,88.7,70.9Z" transform="translate(-6.7 -6.6)"/><path class="cls-7" d="M24.4,38.8H11.3a4.59,4.59,0,0,0-4.6,4.6V56.7a4.65,4.65,0,0,0,4.6,4.6H24.5a4.59,4.59,0,0,0,4.6-4.6V43.3A4.59,4.59,0,0,0,24.4,38.8Z" transform="translate(-6.7 -6.6)"/><path class="cls-8" d="M24.4,6.6H11.3a4.59,4.59,0,0,0-4.6,4.6V24.5a4.65,4.65,0,0,0,4.6,4.6H24.5a4.59,4.59,0,0,0,4.6-4.6V11.2A4.67,4.67,0,0,0,24.4,6.6Z" transform="translate(-6.7 -6.6)"/><path class="cls-9" d="M24.4,70.9H11.3a4.59,4.59,0,0,0-4.6,4.6V88.8a4.65,4.65,0,0,0,4.6,4.6H24.5a4.59,4.59,0,0,0,4.6-4.6V75.5A4.67,4.67,0,0,0,24.4,70.9Z" transform="translate(-6.7 -6.6)"/></svg>