<svg id="Layer_1" data-name="Layer 1" xmlns="http://www.w3.org/2000/svg" viewBox="0 0 76.82 70.26" fill="#FFFFFF">
  <defs>
    <filter id="shadow" filterUnits="userSpaceOnUse">
      <feDropShadow dx="1px" dy="2px" flood-color="#000000" flood-opacity="0.2" stdDeviation="2" />
    </filter>
  </defs>
  <path
    d="M43.4,12.87l-1.69-.26h0a5.63,5.63,0,0,0-.38-.91l1-1.36a.37.37,0,0,0,0-.48l-1.49-1.5a.35.35,0,0,0-.47,0L39,9.33A5.63,5.63,0,0,0,38.08,9l-.24-1.68A.37.37,0,0,0,37.48,7H35.37a.36.36,0,0,0-.36.31l-.26,1.69a6.14,6.14,0,0,0-.92.38l-1.35-1a.38.38,0,0,0-.48,0L30.5,9.81a.37.37,0,0,0,0,.48l1,1.37h0a5.63,5.63,0,0,0-.38.91l-1.69.23a.37.37,0,0,0-.32.36v2.11a.38.38,0,0,0,.31.37l1.69.25h0a6.53,6.53,0,0,0,.37.9l-1,1.38a.38.38,0,0,0,0,.48L32,20.15a.37.37,0,0,0,.48,0l1.37-1,0,0a5.27,5.27,0,0,0,.88.37L35,21.25a.37.37,0,0,0,.36.31h2.11a.38.38,0,0,0,.37-.31L38,19.57v0a5.61,5.61,0,0,0,.88-.36l1.39,1a.37.37,0,0,0,.48,0l1.49-1.49a.35.35,0,0,0,0-.47l-1-1.38,0,0a4.67,4.67,0,0,0,.38-.89l1.71-.24a.36.36,0,0,0,.31-.36V13.23A.36.36,0,0,0,43.4,12.87Zm-7,4.25a2.87,2.87,0,1,1,2.88-2.85A2.87,2.87,0,0,1,36.38,17.12Z"
    transform="translate(-5.3 -6.94)" style="filter:url(#shadow);" />
  <path
    d="M42.37,38.67l-1-1.36h0a6,6,0,0,0,.37-.91l1.69-.25a.37.37,0,0,0,.31-.37V33.66a.37.37,0,0,0-.31-.36l-1.69-.24a5.64,5.64,0,0,0-.39-.92l1-1.36a.37.37,0,0,0,0-.48l-1.5-1.48a.37.37,0,0,0-.48,0l-1.36,1a5.53,5.53,0,0,0-.92-.37l-.25-1.69a.38.38,0,0,0-.37-.31H35.3a.37.37,0,0,0-.36.32l-.24,1.69h0a5.48,5.48,0,0,0-.91.38l-1.37-1a.37.37,0,0,0-.48,0l-1.48,1.5a.37.37,0,0,0,0,.48l1,1.36v0a7.53,7.53,0,0,0-.36.89l-1.71.26a.37.37,0,0,0-.31.36v2.11a.37.37,0,0,0,.32.36l1.69.24h0a5.65,5.65,0,0,0,.37.88l-1,1.4a.35.35,0,0,0,0,.47L32,40.7a.35.35,0,0,0,.47,0l1.37-1h0a7.53,7.53,0,0,0,.89.36L35,41.76a.35.35,0,0,0,.36.31h2.11a.36.36,0,0,0,.36-.31l.24-1.69v0a5.06,5.06,0,0,0,.9-.38l1.38,1a.38.38,0,0,0,.48,0l1.49-1.5A.38.38,0,0,0,42.37,38.67Zm-8-1.88a2.86,2.86,0,1,1,4,0A2.87,2.87,0,0,1,34.38,36.79Z"
    transform="translate(-5.3 -6.94)" style="filter:url(#shadow);" />
  <path
    d="M30.58,21.84l-3-.44h0a9.11,9.11,0,0,0-.67-1.61l1.81-2.42a.65.65,0,0,0-.06-.84L26,13.89a.64.64,0,0,0-.84-.06l-2.42,1.8A9.57,9.57,0,0,0,21.15,15l-.43-3a.65.65,0,0,0-.64-.55H16.35a.65.65,0,0,0-.64.55l-.43,3a10.18,10.18,0,0,0-1.63.68l-2.4-1.81a.67.67,0,0,0-.85.06L7.77,16.53a.64.64,0,0,0-.07.84L9.51,19.8h0a9,9,0,0,0-.67,1.6l-3,.43a.65.65,0,0,0-.56.64v3.73a.65.65,0,0,0,.56.64l3,.44h0a9.57,9.57,0,0,0,.66,1.58L7.71,31.31a.65.65,0,0,0,.06.85l2.64,2.64a.65.65,0,0,0,.84.06l2.42-1.81.05,0a9.69,9.69,0,0,0,1.56.65l.44,3a.65.65,0,0,0,.64.56h3.73a.65.65,0,0,0,.64-.56l.43-3v0A9.47,9.47,0,0,0,22.74,33l2.45,1.84a.65.65,0,0,0,.85-.06l2.63-2.64a.63.63,0,0,0,.06-.84l-1.8-2.42,0,0a9.33,9.33,0,0,0,.66-1.59l3-.43a.63.63,0,0,0,.55-.64V22.48A.63.63,0,0,0,30.58,21.84ZM18.22,29.4a5.06,5.06,0,1,1,5.06-5.06A5.06,5.06,0,0,1,18.22,29.4Z"
    transform="translate(-5.3 -6.94)" style="filter:url(#shadow);" />
</svg>
