<svg id="Layer_1" data-name="Layer 1" xmlns="http://www.w3.org/2000/svg" viewBox="0 0 40 40" fill="#FFFFFF">
  <defs>
    <filter id="shadow" filterUnits="userSpaceOnUse">
      <feDropShadow dx="1px" dy="2px" flood-color="#000000" flood-opacity="0.2" stdDeviation="2" />
    </filter>
  </defs>
  <path
    d="M19.53,4A.67.67,0,0,0,19,3.61a.69.69,0,0,0-.62.2L15.65,6.55a.71.71,0,0,1-1,0L13.46,5.36a.67.67,0,0,1-.21-.5.71.71,0,0,1,.21-.51l2.73-2.73A.69.69,0,0,0,16.38,1,.72.72,0,0,0,16,.46,5.75,5.75,0,0,0,9.71,1.63C8.33,3,7.92,5.14,8.58,7.5a.69.69,0,0,1-.2.72L1,15a2.86,2.86,0,1,0,4.05,4l6.86-7.45a.71.71,0,0,1,.7-.2,8,8,0,0,0,2.06.28,5.22,5.22,0,0,0,3.75-1.41A5.82,5.82,0,0,0,19.53,4ZM3,18.56a1.41,1.41,0,0,1-1.44-.8,1.43,1.43,0,0,1,1.91-1.91,1.45,1.45,0,0,1,.8,1.45A1.43,1.43,0,0,1,3,18.56Z"
    transform="translate(0 0)" style="filter:url(#shadow);" />
</svg>
