<?xml version="1.0"?>
<svg version="1.1" xmlns="http://www.w3.org/2000/svg" width="400px" height="100px" style="">

<path fill="#ffcc00" d="M64.616,53.36l-0.644-2.688s-1.316-0.448-3.136-0.448c-2.94,0-4.62,2.184-4.62,6.86c0,4.536,1.82,6.44,4.76,6.44c2.8,0,5.32-1.96,5.32-1.96l1.54,2.52s-2.94,3.052-7.336,3.052c-5.684,0-8.96-3.416-8.96-9.912c0-6.58,3.696-10.5,9.436-10.5c3.388,0,6.524,1.316,6.524,1.316l-0.14,5.32l-2.744,0z M81.40228,46.724c5.6,0,8.82,3.696,8.82,9.94c0,6.3-3.78,10.5-9.38,10.5s-8.68-3.5-8.68-10.08c0-6.44,3.556-10.36,9.24-10.36z M81.26228,50.224c-2.8,0-4.34,1.736-4.34,6.72c0,4.62,1.26,6.72,4.06,6.72s4.48-1.82,4.48-6.86c0-4.62-1.4-6.58-4.2-6.58z M94.68856,66.8l0-2.38l2.1-0.84l0-13.16l-2.1-0.84l0-2.38l6.72-0.14l7.56,12.936l0-9.576l-2.044-0.84l0-2.38l7.98-0.14l0,2.52l-2.1,0.84l0,16.38l-4.676,0l-7.504-12.684l0,9.464l2.184,0.84l0,2.38l-8.12,0z M117.83084,49.58l0-2.38l8.68-0.14l0,2.52l-2.072,0.812l2.576,8.036l0.896,3.444l0.896-3.304l2.772-8.148l-2.128-0.84l0-2.38l8.372-0.14l0,2.52l-2.044,0.84l-5.908,16.38l-4.48,0l-5.656-16.436z M153.26512,55.04l0,3.08l-5.656,0l0,5.32l5.012,0l0.644-2.296l2.52,0l0,5.656l-14.616,0l0-2.38l2.1-0.84l0-13.16l-2.1-0.84l0-2.38l6.44-0.14l7.84,0l0,5.404l-2.52,0l-0.7-2.044l-4.62,0l0,4.62l5.656,0z M160.2514,66.8l0-2.38l2.1-0.84l0-13.16l-2.1-0.84l0-2.38l6.44-0.14l2.128,0c4.592,0,7.28,1.904,7.28,5.712c0,2.632-1.26,4.34-3.164,5.292c0.308,0.364,0.728,0.896,1.176,1.82l1.876,3.836l1.904,0.7l0,2.38l-5.18,0l-2.352-5.18c-0.952-2.128-1.204-2.576-2.688-2.576l-0.98,0l0,4.536l2.016,0.84l0,2.38l-8.456,0z M166.6914,56.104l1.596,0c2.212,0,3.5-1.064,3.5-2.94c0-1.596-1.064-2.744-2.8-2.744l-2.296,0l0,5.684z M184.70968,60.724l0.42,2.352s1.12,0.588,2.744,0.588c1.792,0,3.388-0.784,3.388-2.268c0-3.276-9.464-1.82-9.464-8.736c0-3.864,3.052-5.936,7.112-5.936c3.164,0,6.16,1.12,6.16,1.12l-0.14,5.096l-2.576,0l-0.7-2.38s-1.26-0.42-2.464-0.42c-1.988,0-2.968,0.868-2.968,1.988c0,3.248,9.436,1.96,9.436,8.54c0,4.2-3.248,6.496-7.56,6.496c-3.164,0-6.244-1.064-6.244-1.064l0-5.376l2.856,0z M200.12396,66.8l0-2.38l2.1-0.84l0-13.16l-2.1-0.84l0-2.38l8.54-0.14l0,2.52l-2.1,0.84l0,13.16l2.1,0.84l0,2.38l-8.54,0z M222.51024,46.724c5.6,0,8.82,3.696,8.82,9.94c0,6.3-3.78,10.5-9.38,10.5s-8.68-3.5-8.68-10.08c0-6.44,3.556-10.36,9.24-10.36z M222.37024,50.224c-2.8,0-4.34,1.736-4.34,6.72c0,4.62,1.26,6.72,4.06,6.72s4.48-1.82,4.48-6.86c0-4.62-1.4-6.58-4.2-6.58z M235.79652,66.8l0-2.38l2.1-0.84l0-13.16l-2.1-0.84l0-2.38l6.72-0.14l7.56,12.936l0-9.576l-2.044-0.84l0-2.38l7.98-0.14l0,2.52l-2.1,0.84l0,16.38l-4.676,0l-7.504-12.684l0,9.464l2.184,0.84l0,2.38l-8.12,0z"/><path fill="#007bff" d="M262.98,66.8l0-2.38l2.1-0.84l0-13.16l-2.1-0.84l0-2.38l6.44-0.14l2.66,0c4.284,0,6.804,2.24,6.804,5.88c0,4.704-2.884,7-7.98,7l-1.484,0l0,3.64l2.1,0.84l0,2.38l-8.54,0z M269.42,56.664l1.484,0c2.324,0,3.64-1.092,3.64-3.164c0-1.82-0.98-3.08-2.884-3.08l-2.24,0l0,6.244z M292.17028,46.724c5.6,0,8.82,3.696,8.82,9.94c0,6.3-3.78,10.5-9.38,10.5s-8.68-3.5-8.68-10.08c0-6.44,3.556-10.36,9.24-10.36z M292.03028,50.224c-2.8,0-4.34,1.736-4.34,6.72c0,4.62,1.26,6.72,4.06,6.72s4.48-1.82,4.48-6.86c0-4.62-1.4-6.58-4.2-6.58z M305.59656,66.8l0-2.38l2.1-0.84l0-13.16l-2.1-0.84l0-2.38l8.54-0.14l0,2.52l-2.1,0.84l0,13.16l2.1,0.84l0,2.38l-8.54,0z M318.18284,66.8l0-2.38l2.1-0.84l0-13.16l-2.1-0.84l0-2.38l6.72-0.14l7.56,12.936l0-9.576l-2.044-0.84l0-2.38l7.98-0.14l0,2.52l-2.1,0.84l0,16.38l-4.676,0l-7.504-12.684l0,9.464l2.184,0.84l0,2.38l-8.12,0z M347.40112,63.58l0-13.16l-2.66,0l-0.7,2.66l-2.576,0l0-6.02l16.24,0l0,6.02l-2.604,0l-0.7-2.66l-2.66,0l0,13.16l2.66,0.84l0,2.38l-9.66,0l0-2.38z"/></svg>
