<?xml version="1.0"?>
<svg version="1.1" xmlns="http://www.w3.org/2000/svg" width="300px" height="100px" style=""><path fill="#ebe310" d="M14.15,65l0-1.575l-4.45,0q-3.1,0-5.2-2.1t-2.1-5.2q0-2.85,2.1-4.9t5.2-2.05l4.45,0l0-1.625l-4.45,0q-3.775,0-6.325,2.5q-2.55,2.475-2.55,6.075q0,3.825,2.55,6.325q2.5,2.55,6.325,2.55l4.45,0z M24.446,47.5q-2.825,0-4.85,2.025q-2.05,2.05-2.05,4.875l0,3.775q0,2.775,2.05,4.825t4.85,2.05q2.825,0,4.875-2.05q2.025-2.025,2.025-4.825l0-3.775q0-2.85-2.025-4.875t-4.875-2.025z M29.796,54.4l0,3.775q0,2.275-1.6,3.825q-1.575,1.5-3.75,1.5t-3.725-1.5q-1.6-1.55-1.6-3.825l0-3.775q0-2.1,1.6-3.75q1.6-1.6,3.725-1.6q2.1,0,3.75,1.6q1.6,1.65,1.6,3.75z M35.242,65l1.55,0l0-10.6q0-2.1,1.6-3.75q1.6-1.6,3.7-1.6t3.75,1.6q1.6,1.65,1.6,3.75l0,10.6l1.55,0l0-10.6q0-2.85-2.025-4.875t-4.875-2.025q-2.8,0-4.825,2.025t-2.025,4.875l0,10.6z M66.188,47.4l-1.9,0l-5.325,13.225l-5.025-13.225l-1.575,0l6.6,17.6z M71.109,60.2q0-1.2,0.85-2.175q0.85-1.025,2.05-1.025l0.325,0l4.675,0l0-1.55l-4.675,0l-0.325,0q-1.275-0.25-2.0875-1.1t-0.8125-2.025q0-1.475,0.8625-2.3375t2.3625-0.8625l8.5,0l0-1.575l-8.5,0q-1.925,0-3.35,1.425q-1.425,1.375-1.425,3.35q0,1.25,0.475,2.275t1.4,1.475q-0.925,0.675-1.4,1.775t-0.475,2.35q0,1.95,1.425,3.325q1.45,1.45,3.35,1.45l8.5,0l0-1.65l-8.5,0q-1.5,0-2.3625-0.85t-0.8625-2.275z M93.78,56.225l1.875,0q1.9,0,3.15-1.25t1.25-3.15q0-1.675-1.25-3q-1.325-1.375-3.15-1.375l-7.825,0l-1.55,0l0,17.55l1.55,0l0-8.775l4.075,0l5.325,8.775l1.875,0z M87.83,54.675l0-5.65l7.825,0q1.15,0,2.025,0.825q0.825,0.825,0.825,1.975q0,1.2-0.825,2.025q-0.875,0.825-2.025,0.825l-7.825,0z M107.826,49.325l9.425,0l0-1.9l-9.425,0q-1.85,0-3.1,1.45q-1.275,1.475-1.275,3.575q0,1.9,1.275,3.3q1.25,1.425,3.1,1.425l2.5,0l2.55,0q1.125,0,2,0.95q0.825,1,0.825,2.175q0,1.4-0.8125,2.275t-2.0125,0.875l-9.425,0l0,1.55l9.425,0q1.875,0,3.125-1.3t1.25-3.4q0-1.9-1.25-3.3q-1.275-1.4-3.125-1.4l-2.55,0l-2.5,0q-1.15,0-1.975-1q-0.85-0.925-0.85-2.15q0-1.4,0.8125-2.2625t2.0125-0.8625z M121.197,65.025l1.575,0l0-17.575l-1.575,0l0,17.575z M133.718,47.5q-2.825,0-4.85,2.025q-2.05,2.05-2.05,4.875l0,3.775q0,2.775,2.05,4.825t4.85,2.05q2.825,0,4.875-2.05q2.025-2.025,2.025-4.825l0-3.775q0-2.85-2.025-4.875t-4.875-2.025z M139.068,54.4l0,3.775q0,2.275-1.6,3.825q-1.575,1.5-3.75,1.5t-3.725-1.5q-1.6-1.55-1.6-3.825l0-3.775q0-2.1,1.6-3.75q1.6-1.6,3.725-1.6q2.1,0,3.75,1.6q1.6,1.65,1.6,3.75z M144.514,65l1.55,0l0-10.6q0-2.1,1.6-3.75q1.6-1.6,3.7-1.6t3.75,1.6q1.6,1.65,1.6,3.75l0,10.6l1.55,0l0-10.6q0-2.85-2.025-4.875t-4.875-2.025q-2.8,0-4.825,2.025t-2.025,4.875l0,10.6z"/><path fill="#007bff" d="M173.575,47.5l-7.85,0l-1.55,0l0,17.575l1.55,0l0-8.8l7.85,0q1.9,0,3.15-1.25t1.25-3.125q0-1.7-1.25-3.025q-1.325-1.375-3.15-1.375z M173.575,54.725l-7.85,0l0-5.675l7.85,0q1.15,0,2.025,0.825q0.825,0.875,0.825,2.025q0,1.175-0.825,2q-0.875,0.825-2.025,0.825z M187.846,47.5q-2.825,0-4.85,2.025q-2.05,2.05-2.05,4.875l0,3.775q0,2.775,2.05,4.825t4.85,2.05q2.825,0,4.875-2.05q2.025-2.025,2.025-4.825l0-3.775q0-2.85-2.025-4.875t-4.875-2.025z M193.196,54.4l0,3.775q0,2.275-1.6,3.825q-1.575,1.5-3.75,1.5t-3.725-1.5q-1.6-1.55-1.6-3.825l0-3.775q0-2.1,1.6-3.75q1.6-1.6,3.725-1.6q2.1,0,3.75,1.6q1.6,1.65,1.6,3.75z M198.867,65.025l1.575,0l0-17.575l-1.575,0l0,17.575z M204.638,65l1.55,0l0-10.6q0-2.1,1.6-3.75q1.6-1.6,3.7-1.6t3.75,1.6q1.6,1.65,1.6,3.75l0,10.6l1.55,0l0-10.6q0-2.85-2.025-4.875t-4.875-2.025q-2.8,0-4.825,2.025t-2.025,4.875l0,10.6z M235.134,47.5l-13.55,0l0,1.525l6.15,0l0,16.025l1.55,0l0-16.025l5.85,0l0-1.525z"/></svg>
