<svg xmlns="http://www.w3.org/2000/svg" width="14" height="13.239" viewBox="0 0 14 13.239">
  <path id="Ic-_Expand_Panel" data-name="Ic- Expand Panel" d="M-3911.949-2268.095l-5.479-5.479a1.143,1.143,0,0,1,0-1.615l5.478-5.477a1.141,1.141,0,0,1,1.615,0,1.141,1.141,0,0,1,0,1.615l-4.669,4.67,4.669,4.67a1.142,1.142,0,0,1,0,1.616,1.14,1.14,0,0,1-.808.334A1.137,1.137,0,0,1-3911.949-2268.095Zm-6.239,0-5.478-5.479a1.141,1.141,0,0,1,0-1.615l5.478-5.477a1.14,1.14,0,0,1,1.614,0,1.141,1.141,0,0,1,0,1.615l-4.671,4.67,4.671,4.67a1.142,1.142,0,0,1,0,1.616,1.138,1.138,0,0,1-.807.334A1.137,1.137,0,0,1-3918.187-2268.095Z" transform="translate(3924 2281)" fill="#718699"/>
</svg>
