<svg xmlns="http://www.w3.org/2000/svg" width="18.265" height="18.447" viewBox="0 0 18.265 18.447">
  <path id="Ic-History_Analysis" data-name="Ic-History Analysis" d="M-3914.949-6854.884l-1.854-1.154a.488.488,0,0,1-.23-.379.483.483,0,0,1,.171-.406l1.664-1.417a.486.486,0,0,1,.5-.079.492.492,0,0,1,.3.416l.041.564a.114.114,0,0,0,.118.1,7.126,7.126,0,0,0,2.8-.76,7.056,7.056,0,0,0,2.245-1.794.672.672,0,0,1,.9-.122l.013.012a.65.65,0,0,1,.272.455.678.678,0,0,1-.15.517,8.527,8.527,0,0,1-2.635,2.115,8.46,8.46,0,0,1-3.349.926.1.1,0,0,0-.074.039.1.1,0,0,0-.028.079l.032.438a.484.484,0,0,1-.234.451.484.484,0,0,1-.251.072A.489.489,0,0,1-3914.949-6854.884Zm-4.929-2.271a8.449,8.449,0,0,1-2.116-2.634,8.4,8.4,0,0,1-.925-3.348.117.117,0,0,0-.038-.077.118.118,0,0,0-.082-.026l-.435.034a.49.49,0,0,1-.454-.234.486.486,0,0,1,0-.51l1.154-1.857a.485.485,0,0,1,.379-.227.478.478,0,0,1,.408.171l1.415,1.664a.486.486,0,0,1,.079.5.483.483,0,0,1-.413.3l-.567.043a.111.111,0,0,0-.1.118,7.145,7.145,0,0,0,.76,2.8,7.075,7.075,0,0,0,1.8,2.245.674.674,0,0,1,.121.9l-.012.016a.669.669,0,0,1-.456.273c-.027,0-.054,0-.084,0A.666.666,0,0,1-3919.879-6857.154Zm1.143-2.687a.273.273,0,0,1-.272-.272.273.273,0,0,1,.272-.271h.2v-1.8c0-.179.079-.308.19-.308h.773a.073.073,0,0,1,.073.072v2.038h.746v-3.609c0-.18.079-.311.19-.311h.773a.075.075,0,0,1,.073.072v3.848h.744v-5.417c0-.179.081-.311.193-.311h.773a.074.074,0,0,1,.073.072v5.655h.716v-6.351c0-.2.08-.339.19-.339h.773a.074.074,0,0,1,.073.073v6.616h1.111a.273.273,0,0,1,.272.271.273.273,0,0,1-.272.272Zm10.789-2.127-1.465-1.621a.485.485,0,0,1-.1-.5.485.485,0,0,1,.406-.311l.562-.06a.113.113,0,0,0,.1-.122,7.082,7.082,0,0,0-.846-2.775,7.064,7.064,0,0,0-1.859-2.19.67.67,0,0,1-.15-.9l.011-.016a.655.655,0,0,1,.447-.287.674.674,0,0,1,.52.136,8.506,8.506,0,0,1,2.195,2.569,8.467,8.467,0,0,1,1.027,3.319.1.1,0,0,0,.039.073.1.1,0,0,0,.081.024l.436-.045a.487.487,0,0,1,.46.22.484.484,0,0,1,.013.509l-1.1,1.889a.482.482,0,0,1-.372.24.314.314,0,0,1-.052,0A.485.485,0,0,1-3907.947-6861.968Zm-10.879-3.347a.4.4,0,0,1,.031-.562l1.423-1.274-.169-.191a.371.371,0,0,1-.07-.383.373.373,0,0,1,.31-.24l1.154-.127a.37.37,0,0,1,.323.122.37.37,0,0,1,.086.333l-.254,1.135a.374.374,0,0,1-.272.282.35.35,0,0,1-.095.011.369.369,0,0,1-.279-.125l-.2-.223-1.423,1.275a.4.4,0,0,1-.266.1A.4.4,0,0,1-3918.826-6865.315Zm-2.694-2.584-.014-.009a.656.656,0,0,1-.272-.456.677.677,0,0,1,.149-.517,8.532,8.532,0,0,1,2.635-2.113,8.444,8.444,0,0,1,3.349-.927.105.105,0,0,0,.074-.039.1.1,0,0,0,.027-.079l-.031-.438a.486.486,0,0,1,.233-.454.488.488,0,0,1,.508,0l1.857,1.155a.478.478,0,0,1,.23.379.482.482,0,0,1-.171.4l-1.664,1.417a.494.494,0,0,1-.505.08.489.489,0,0,1-.3-.416l-.043-.564a.11.11,0,0,0-.116-.1,7.079,7.079,0,0,0-2.8.761,7.043,7.043,0,0,0-2.244,1.793.677.677,0,0,1-.52.243A.647.647,0,0,1-3921.52-6867.9Z" transform="translate(3924.132 6873.132)" stroke="#718699" stroke-width="0.25"/>
</svg>
