<svg xmlns="http://www.w3.org/2000/svg" width="18" height="16.771" viewBox="0 0 18 16.771">
  <path id="Ic-Service_Monitor" data-name="Ic-Service Monitor" d="M-3917.924-6856.229a.618.618,0,0,1-.62-.62.617.617,0,0,1,.62-.617h.391l.858-2.063h-6.366a.958.958,0,0,1-.958-.96v-10.158a.958.958,0,0,1,.958-.959h1.373a.912.912,0,0,0,.153,1.1.931.931,0,0,0-.932.932c0,1.033-.078,1.365.161,1.714v5.9a.418.418,0,0,0,.419.418h13.731a.42.42,0,0,0,.422-.418v-5.44a1.684,1.684,0,0,0,0-1.423c0-1.019.01-.868-1.641-.868l.321-.134c.647-.271.74-1.14-.068-1.781h2.14a.961.961,0,0,1,.962.959v10.158a.961.961,0,0,1-.962.96h-6.366l.858,2.063h.394a.617.617,0,0,1,.617.617.618.618,0,0,1-.617.62Zm8.87-4.372a.449.449,0,0,0,.45.45.449.449,0,0,0,.449-.45.449.449,0,0,0-.449-.449A.449.449,0,0,0-3909.053-6860.6Zm-1.463,0a.449.449,0,0,0,.45.45.45.45,0,0,0,.451-.45.451.451,0,0,0-.451-.449A.449.449,0,0,0-3910.517-6860.6Zm-9.46-5.542,7.1-2.961c.486-1.021.732-1.86,1.834-2.108l.617-.143c.893-.206,1.614.788,1.157.977-1.822.76-1.726.479-1.1,1.989a.426.426,0,0,0,.562.23l1.244-.516c.469-.2.645,1.021-.121,1.507-1.4.886-1.473.806-3.324.156l-7.107,2.961a1.224,1.224,0,0,1-.474.1A1.145,1.145,0,0,1-3919.977-6866.144Zm-.635-1.358a3.046,3.046,0,0,1-.229-.548c-1.177,0-1.006.144-1.006-1.522,0-.433.565-.332,1.006-.332a2.923,2.923,0,0,1,.229-.547c-.833-.831-.813-.611.364-1.79.306-.3.632.168.946.48a3.1,3.1,0,0,1,.548-.226c0-1.177-.146-1.006,1.523-1.006.429,0,.329.565.329,1.006a3.124,3.124,0,0,1,.547.226c.831-.832.6-.822,1.789.365.306.3-.166.633-.479.945a3.151,3.151,0,0,1,.228.547c.838,0,1.006-.086,1.006.539l-1.937.809a2.125,2.125,0,0,0-2.081-2.542,2.125,2.125,0,0,0-2.123,2.121,2.115,2.115,0,0,0,.958,1.772c-1.094.456-1.442.529-1.813.931C-3921.4-6866.87-3921.312-6866.8-3920.612-6867.5Zm1.26-1.476a1.523,1.523,0,0,1,1.523-1.521,1.516,1.516,0,0,1,1.325,2.255l-1.739.726A1.523,1.523,0,0,1-3919.352-6868.978Zm5.207-1.525a.913.913,0,0,0,.156-1.1h2.268a2.547,2.547,0,0,0-1.2,1.208l-.311.648A.925.925,0,0,0-3914.145-6870.5Z" transform="translate(3923.999 6873.001)"/>
</svg>
