<svg xmlns="http://www.w3.org/2000/svg" width="20" height="20.006" viewBox="0 0 20 20.006">
  <path id="sidebar" data-name="Path 262" d="M12.091,7.763A2.091,2.091,0,1,1,10,5.672h0a2.093,2.093,0,0,1,2.091,2.091ZM10.772,2.826H9.229a.314.314,0,0,0-.314.314v.525A4.205,4.205,0,0,0,7.87,4.1L7.5,3.726a.314.314,0,0,0-.444,0L5.963,4.817a.314.314,0,0,0,0,.444l.371.371A4.188,4.188,0,0,0,5.9,6.677H5.376a.314.314,0,0,0-.314.314V8.534a.314.314,0,0,0,.314.314H5.9a4.19,4.19,0,0,0,.433,1.046l-.371.371a.314.314,0,0,0,0,.444L7.054,11.8a.314.314,0,0,0,.444,0l.371-.372a4.169,4.169,0,0,0,1.045.433v.525a.314.314,0,0,0,.314.314h1.543a.314.314,0,0,0,.314-.314v-.525a4.166,4.166,0,0,0,1.045-.433l.371.372a.314.314,0,0,0,.444,0l1.091-1.091a.314.314,0,0,0,0-.444l-.371-.371A4.182,4.182,0,0,0,14.1,8.848h.525a.314.314,0,0,0,.314-.314V6.991a.314.314,0,0,0-.314-.314H14.1a4.174,4.174,0,0,0-.433-1.045l.371-.371a.314.314,0,0,0,0-.444L12.946,3.726a.314.314,0,0,0-.444,0l-.371.371a4.212,4.212,0,0,0-1.045-.433V3.139a.314.314,0,0,0-.314-.314ZM9.961.91A6.856,6.856,0,0,0,3.234,8.858a.314.314,0,1,0,.62-.1,6.229,6.229,0,0,1,6.02-7.22l-.371.28a.314.314,0,1,0,.378.5l1.063-.8a.314.314,0,0,0,.035-.471L10.042.1a.314.314,0,1,0-.457.43L9.6.54Zm2.069.627a.314.314,0,0,0,.182.4h0a6.261,6.261,0,0,1,4.014,5.821,6.178,6.178,0,0,1-.772,3.005L15.4,10.3a.314.314,0,1,0-.623.077l.163,1.321a.314.314,0,0,0,.311.275.307.307,0,0,0,.08-.01l1.288-.337a.314.314,0,1,0-.146-.61l-.013,0-.5.131a6.857,6.857,0,0,0-3.522-9.8.314.314,0,0,0-.4.182ZM5.1,11.166l-.428-.182a6.225,6.225,0,0,0,9.262,1.6.314.314,0,0,1,.4.48l-.007.006A6.854,6.854,0,0,1,4.084,11.224l-.137.5a.314.314,0,0,1-.3.231.323.323,0,0,1-.083-.011.314.314,0,0,1-.22-.386l.353-1.284a.314.314,0,0,1,.386-.219l.039.014,1.226.519a.314.314,0,0,1-.245.578Zm13.574-8.34H15.8a.314.314,0,0,0,0,.627h2.874a.7.7,0,0,1,.7.7V15.33H.627V4.151a.7.7,0,0,1,.7-.7H4.2a.314.314,0,0,0,0-.627H1.325A1.327,1.327,0,0,0,0,4.151V16.325A1.327,1.327,0,0,0,1.325,17.65H5.8L4.844,19.3a.463.463,0,0,0,0,.47.475.475,0,0,0,.41.238h9.5a.475.475,0,0,0,.41-.238.464.464,0,0,0,0-.47L14.2,17.65h4.478A1.327,1.327,0,0,0,20,16.325V4.151A1.327,1.327,0,0,0,18.675,2.826Z" transform="translate(0 0)"/>
</svg>
