<svg xmlns="http://www.w3.org/2000/svg" width="18.145" height="17.652" viewBox="0 0 18.145 17.652">
  <path id="Ic-Console_Configuration" data-name="Ic-Console Configuration" d="M5.454,17.129l-.263-1.222a4.553,4.553,0,0,1-.854-.229L3.5,16.6a5.564,5.564,0,0,1-.783-.446l.383-1.19a4.507,4.507,0,0,1-.628-.626l-1.188.383a5.509,5.509,0,0,1-.447-.782l.925-.84a4.416,4.416,0,0,1-.227-.851L.312,11.984c-.012-.149-.024-.3-.024-.452s.012-.3.024-.452l1.222-.264a4.383,4.383,0,0,1,.227-.853l-.925-.84a5.619,5.619,0,0,1,.447-.782l1.188.383A4.507,4.507,0,0,1,3.1,8.1L2.718,6.912A5.69,5.69,0,0,1,3.5,6.461l.837.927a4.474,4.474,0,0,1,.854-.227l.263-1.226c.149-.01.3-.02.452-.02s.3.009.455.02l.263,1.226a4.488,4.488,0,0,1,.854.227l.837-.927a5.572,5.572,0,0,1,.782.451L8.714,8.1a4.39,4.39,0,0,1,.626.626l1.191-.383a5.592,5.592,0,0,1,.447.782l-.924.84a4.382,4.382,0,0,1,.227.853l1.223.264c.011.149.023.3.023.452s-.011.3-.023.452l-1.223.266a4.415,4.415,0,0,1-.227.851l.924.84a5.483,5.483,0,0,1-.447.782L9.34,14.34a4.39,4.39,0,0,1-.626.626l.383,1.19a5.671,5.671,0,0,1-.782.446l-.839-.925a4.5,4.5,0,0,1-.852.229l-.266,1.222c-.149.012-.3.023-.452.023S5.6,17.141,5.454,17.129Zm-2.5-5.6A2.958,2.958,0,1,0,5.906,8.575,2.956,2.956,0,0,0,2.949,11.533Zm11.505,1.16-.229-.646a2.164,2.164,0,0,1-.466-.19l-.619.293a2.594,2.594,0,0,1-.457-.458l.294-.62a2.03,2.03,0,0,1-.193-.463l-.647-.23a2.949,2.949,0,0,1-.021-.325,2.983,2.983,0,0,1,.021-.323l.647-.229a2.061,2.061,0,0,1,.193-.464l-.294-.619a2.594,2.594,0,0,1,.457-.458l.619.293a2.072,2.072,0,0,1,.466-.191l.229-.646a2.637,2.637,0,0,1,.323-.023c.11,0,.218.01.323.02l.231.649a2.042,2.042,0,0,1,.463.191l.619-.293a2.711,2.711,0,0,1,.459.458l-.294.619a2.186,2.186,0,0,1,.191.464l.647.229a2.561,2.561,0,0,1,.023.323,2.535,2.535,0,0,1-.023.325l-.647.23a2.151,2.151,0,0,1-.191.463l.294.62a2.711,2.711,0,0,1-.459.458l-.619-.293a2.133,2.133,0,0,1-.463.19l-.231.646a2.43,2.43,0,0,1-.323.024A2.458,2.458,0,0,1,14.455,12.693Zm-.564-2.64a.888.888,0,1,0,.888-.885A.89.89,0,0,0,13.891,10.053ZM0,6.613A7.665,7.665,0,0,1,5.906,3.845c.163,0,.328.009.489.02l-.4-.4.42-.42,1.094,1.1-1.094,1.1-.42-.418.365-.364c-.151-.01-.3-.019-.452-.019A7.082,7.082,0,0,0,.454,6.991Zm11.74-.131-.3-.963A2.357,2.357,0,0,1,11,5.337L10.1,5.8a3.238,3.238,0,0,1-.537-.535l.466-.9a2.421,2.421,0,0,1-.179-.438l-.965-.3a3.519,3.519,0,0,1-.023-.38,3.432,3.432,0,0,1,.023-.378l.963-.3a2.388,2.388,0,0,1,.181-.438l-.466-.894A3.234,3.234,0,0,1,10.1.7L11,1.169a2.17,2.17,0,0,1,.438-.181l.3-.966a3.2,3.2,0,0,1,.757,0l.3.966a2.174,2.174,0,0,1,.438.181L14.132.7a3.306,3.306,0,0,1,.536.538l-.468.894a2.215,2.215,0,0,1,.181.438l.966.3a3.43,3.43,0,0,1,.023.378,3.469,3.469,0,0,1-.023.379l-.966.3a2.353,2.353,0,0,1-.179.438l.466.895a3.245,3.245,0,0,1-.536.537l-.895-.466a2.58,2.58,0,0,1-.438.182l-.3.963a3.129,3.129,0,0,1-.757,0Zm-.806-3.229a1.184,1.184,0,1,0,1.184-1.184A1.184,1.184,0,0,0,10.934,3.252Zm4.647,2.773a4.433,4.433,0,0,0,.534-4.692l-.158.8-.581-.117L15.73.243,17.5.6l-.115.581-.759-.151a5.028,5.028,0,0,1-.583,5.37Z" transform="translate(0.352 0.25)" stroke="#718699" stroke-width="0.5"/>
</svg>
