<svg id="Ic-Filter" xmlns="http://www.w3.org/2000/svg" width="15.926" height="16" viewBox="0 0 15.926 16">
  <path id="Ic-Filter-2" data-name="Ic-Filter" d="M2.467,14.155H.688a.688.688,0,1,1,0-1.376H2.467a2.549,2.549,0,0,1,4.9,0h7.887a.677.677,0,0,1,.672.688.691.691,0,0,1-.688.688H7.367a2.549,2.549,0,0,1-4.9,0Zm1.292-.672a1.158,1.158,0,1,0,1.158-1.158A1.16,1.16,0,0,0,3.759,13.483Zm4.8-4.795H.688A.7.7,0,0,1,0,8a.691.691,0,0,1,.688-.688H8.575a2.549,2.549,0,0,1,4.9,0h1.779a.688.688,0,0,1-.016,1.376H13.459a2.549,2.549,0,0,1-4.9,0ZM9.867,8a1.158,1.158,0,1,0,1.158-1.158A1.16,1.16,0,0,0,9.867,8Zm-7.4-4.778H.688A.7.7,0,0,1,0,2.534a.691.691,0,0,1,.688-.688H2.467a2.549,2.549,0,0,1,4.9,0h7.871a.7.7,0,0,1,.688.688.691.691,0,0,1-.688.688H7.367a2.549,2.549,0,0,1-4.9,0Zm1.292-.705A1.158,1.158,0,1,0,4.917,1.36,1.16,1.16,0,0,0,3.759,2.517Z" />
</svg>
