<svg xmlns="http://www.w3.org/2000/svg" width="10.361" height="14.817" viewBox="0 0 10.361 14.817">
  <g id="Group_174823" data-name="Group 174823" transform="translate(-445.851 -255.988)">
    <path id="Union_141" data-name="Union 141" d="M3770.391-7938.426l-4.137-4.137a.861.861,0,0,1,0-1.22.862.862,0,0,1,1.219,0l3.527,3.527,3.527-3.527a.864.864,0,0,1,1.221,0,.865.865,0,0,1,0,1.22l-4.137,4.137a.86.86,0,0,1-.611.253A.855.855,0,0,1,3770.391-7938.426Zm4.135-8.654-3.527-3.529-3.527,3.529a.861.861,0,0,1-1.219,0,.861.861,0,0,1,0-1.22l4.137-4.137a.861.861,0,0,1,1.219,0l4.137,4.137a.865.865,0,0,1,0,1.22.862.862,0,0,1-.611.253A.862.862,0,0,1,3774.527-7947.08Z" transform="translate(-3320 8208.828)" fill="#849cb3" stroke="#849cb3" stroke-width="0.3"/>
  </g>
</svg>
