<svg xmlns="http://www.w3.org/2000/svg" width="16" height="17.238" viewBox="0 0 16 17.238">
  <path id="calendar" d="M4.569,15.908H7.34v2.771H4.569Zm3.381,0h3.076v2.771H7.959V15.908Zm-3.381-3.7H7.34v3.076H4.569Zm3.381,0h3.076v3.076H7.959V12.213ZM4.569,8.822H7.34v2.771H4.569Zm7.076,7.085h3.076v2.771H11.645ZM7.95,8.832h3.076V11.6H7.959V8.832Zm7.39,7.076h2.771v2.771H15.34Zm-3.7-3.7h3.076v3.076H11.645ZM8.171,7.2a.3.3,0,0,1-.212.092H7.34a.321.321,0,0,1-.3-.3V4.213a.322.322,0,0,1,.3-.314h.619a.321.321,0,0,1,.3.3V6.975A.287.287,0,0,1,8.171,7.2Zm7.169,5.016h2.771v3.076H15.34Zm-3.7-3.381h3.076V11.6H11.645Zm3.7,0h2.771V11.6H15.34Zm.212-1.626a.3.3,0,0,1-.212.092h-.619a.321.321,0,0,1-.3-.3V4.222a.311.311,0,0,1,.3-.323h.619a.321.321,0,0,1,.3.3V6.975a.315.315,0,0,1-.083.222Zm3.788-.831a1.246,1.246,0,0,0-1.229-1.229H16.883V4.222A1.545,1.545,0,0,0,15.34,2.679h-.619a1.554,1.554,0,0,0-1.533,1.533v.924h-3.7V4.213A1.544,1.544,0,0,0,7.959,2.67H7.34A1.545,1.545,0,0,0,5.8,4.213h0v.924H4.569A1.246,1.246,0,0,0,3.34,6.365V18.679a1.246,1.246,0,0,0,1.229,1.229H18.111a1.246,1.246,0,0,0,1.229-1.229V6.374Z" transform="translate(-3.34 -2.67)" fill="#849cb3"/>
</svg>
