<svg xmlns="http://www.w3.org/2000/svg" width="18.25" height="18.255" viewBox="0 0 18.25 18.255">
  <g id="Ic-Process_Monitor" data-name="Ic-Process Monitor" transform="translate(-1.375 -0.375)">
    <path id="Path_262" data-name="Path 262" d="M10.882,6.986A1.882,1.882,0,1,1,9,5.105H9a1.884,1.884,0,0,1,1.882,1.882ZM9.694,2.543H8.306a.282.282,0,0,0-.282.282V3.3a3.785,3.785,0,0,0-.941.39l-.334-.334a.282.282,0,0,0-.4,0l-.982.982a.283.283,0,0,0,0,.4l.334.334a3.769,3.769,0,0,0-.39.941H4.839a.282.282,0,0,0-.282.282V7.681a.282.282,0,0,0,.282.282h.473A3.771,3.771,0,0,0,5.7,8.9l-.334.334a.282.282,0,0,0,0,.4l.982.982a.283.283,0,0,0,.4,0l.334-.335a3.752,3.752,0,0,0,.941.39v.473a.282.282,0,0,0,.282.282H9.694a.282.282,0,0,0,.282-.282v-.473a3.749,3.749,0,0,0,.941-.39l.334.335a.282.282,0,0,0,.4,0l.982-.982a.282.282,0,0,0,0-.4L12.3,8.9a3.764,3.764,0,0,0,.39-.941h.473a.282.282,0,0,0,.282-.282V6.292a.282.282,0,0,0-.282-.282h-.473a3.756,3.756,0,0,0-.39-.941l.334-.334a.283.283,0,0,0,0-.4l-.982-.982a.282.282,0,0,0-.4,0l-.334.334a3.791,3.791,0,0,0-.941-.39V2.825a.282.282,0,0,0-.282-.282ZM8.965.819A6.171,6.171,0,0,0,2.911,7.972a.282.282,0,1,0,.558-.09,5.606,5.606,0,0,1,5.418-6.5l-.334.252a.282.282,0,1,0,.34.451l.956-.722A.283.283,0,0,0,9.88.941L9.037.089a.282.282,0,1,0-.411.387l.01.01Zm1.862.564a.282.282,0,0,0,.164.364h0A5.635,5.635,0,0,1,14.6,6.986a5.56,5.56,0,0,1-.695,2.7l-.051-.418a.282.282,0,1,0-.56.07l.147,1.189a.282.282,0,0,0,.28.248.276.276,0,0,0,.072-.009l1.159-.3a.282.282,0,1,0-.131-.549l-.012,0-.451.118a6.171,6.171,0,0,0-3.17-8.82.283.283,0,0,0-.364.164ZM4.591,10.049l-.386-.163a5.6,5.6,0,0,0,8.336,1.443.282.282,0,0,1,.363.432l-.006.005A6.168,6.168,0,0,1,3.676,10.1l-.124.45a.283.283,0,0,1-.272.208.29.29,0,0,1-.075-.01.283.283,0,0,1-.2-.347l.317-1.156a.282.282,0,0,1,.347-.2l.035.012,1.1.467a.282.282,0,0,1-.22.52ZM16.807,2.543H14.221a.282.282,0,0,0,0,.565h2.587a.629.629,0,0,1,.628.628V13.8H.565V3.736a.629.629,0,0,1,.628-.628H3.779a.282.282,0,0,0,0-.565H1.193A1.194,1.194,0,0,0,0,3.736V14.693a1.194,1.194,0,0,0,1.193,1.193H5.224L4.36,17.368a.417.417,0,0,0,0,.423.427.427,0,0,0,.369.215h8.549a.428.428,0,0,0,.369-.214.418.418,0,0,0,0-.423l-.864-1.483h4.031A1.194,1.194,0,0,0,18,14.693V3.736A1.194,1.194,0,0,0,16.807,2.543Z" transform="translate(1.5 0.5)" stroke="#718699" stroke-width="0.25" fill-rule="evenodd"/>
  </g>
</svg>
