<svg version="1.2" xmlns="http://www.w3.org/2000/svg" xmlns:xlink="http://www.w3.org/1999/xlink" overflow="visible" preserveAspectRatio="none" viewBox="0 0 10 10" width="10" height="10"><g transform="translate(0, 0)"><defs><path id="path-1630667217528490886" d="M6.112358882352211 4.999013487580731 C6.112358882352211 4.999013487580731 9.772454021485274 1.330820438284627 9.772454021485274 1.330820438284627 C10.07566623072622 1.026937376200394 10.07566623072622 0.5342455855800287 9.772454021485274 0.2303625234957954 C9.46924181224432 -0.07352053858843778 8.977637688986306 -0.07352053858843778 8.674425479745354 0.2303625234957954 C8.674425479745354 0.2303625234957954 5.014330340612291 3.8985555727918997 5.014330340612291 3.8985555727918997 C5.014330340612291 3.8985555727918997 1.354235201479233 0.2303625234957954 1.354235201479233 0.2303625234957954 C1.051022992238282 -0.07352053858843752 0.5594188689802657 -0.07352053858843778 0.2562066597393147 0.2303625234957954 C-0.047005549501635824 0.5342455855800281 -0.047005549501636074 1.026937376200393 0.2562066597393142 1.330820438284627 C0.2562066597393142 1.330820438284627 3.916301798872375 4.999013487580731 3.916301798872375 4.999013487580731 C3.916301798872375 4.999013487580731 0.2562066597393147 8.667206536876837 0.2562066597393147 8.667206536876837 C0.0985954046703707 8.804499383402222 0.005695050340482162 9.001771165805927 0.00012838677584945415 9.210982905726619 C-0.005438276788783253 9.420194645647316 0.0768395711840715 9.622148182228788 0.2269258986262504 9.767664451665667 C0.37462879571355645 9.915782688630808 0.5743278875513035 10.000052551086489 0.7832603597744758 10.002428806820618 C0.9929921027802979 10.003999630789473 1.1941504647263828 9.919113979397629 1.3395948209227009 9.767664451665667 C1.3395948209227009 9.767664451665667 4.999689960055762 6.099471402369563 4.999689960055762 6.099471402369563 C4.999689960055762 6.099471402369563 8.659785099188822 9.767664451665667 8.659785099188822 9.767664451665667 C8.807487996276128 9.915782688630808 9.007187088113875 10.000052551086489 9.216119560337049 10.002428806820618 C9.53126080933848 10.001499938458764 9.81515481674563 9.811374161902854 9.936590388430332 9.519924519646079 C10.058025960115035 9.2284748773893 9.993349738460642 8.892470259468585 9.772454021485274 8.667206536876837 C9.772454021485274 8.667206536876837 6.112358882352211 4.999013487580731 6.112358882352211 4.999013487580731 Z" vector-effect="non-scaling-stroke"/></defs><g transform="translate(0.0006200238350126401, -0.0019601815460964156)"><path d="M6.112358882352211 4.999013487580731 C6.112358882352211 4.999013487580731 9.772454021485274 1.330820438284627 9.772454021485274 1.330820438284627 C10.07566623072622 1.026937376200394 10.07566623072622 0.5342455855800287 9.772454021485274 0.2303625234957954 C9.46924181224432 -0.07352053858843778 8.977637688986306 -0.07352053858843778 8.674425479745354 0.2303625234957954 C8.674425479745354 0.2303625234957954 5.014330340612291 3.8985555727918997 5.014330340612291 3.8985555727918997 C5.014330340612291 3.8985555727918997 1.354235201479233 0.2303625234957954 1.354235201479233 0.2303625234957954 C1.051022992238282 -0.07352053858843752 0.5594188689802657 -0.07352053858843778 0.2562066597393147 0.2303625234957954 C-0.047005549501635824 0.5342455855800281 -0.047005549501636074 1.026937376200393 0.2562066597393142 1.330820438284627 C0.2562066597393142 1.330820438284627 3.916301798872375 4.999013487580731 3.916301798872375 4.999013487580731 C3.916301798872375 4.999013487580731 0.2562066597393147 8.667206536876837 0.2562066597393147 8.667206536876837 C0.0985954046703707 8.804499383402222 0.005695050340482162 9.001771165805927 0.00012838677584945415 9.210982905726619 C-0.005438276788783253 9.420194645647316 0.0768395711840715 9.622148182228788 0.2269258986262504 9.767664451665667 C0.37462879571355645 9.915782688630808 0.5743278875513035 10.000052551086489 0.7832603597744758 10.002428806820618 C0.9929921027802979 10.003999630789473 1.1941504647263828 9.919113979397629 1.3395948209227009 9.767664451665667 C1.3395948209227009 9.767664451665667 4.999689960055762 6.099471402369563 4.999689960055762 6.099471402369563 C4.999689960055762 6.099471402369563 8.659785099188822 9.767664451665667 8.659785099188822 9.767664451665667 C8.807487996276128 9.915782688630808 9.007187088113875 10.000052551086489 9.216119560337049 10.002428806820618 C9.53126080933848 10.001499938458764 9.81515481674563 9.811374161902854 9.936590388430332 9.519924519646079 C10.058025960115035 9.2284748773893 9.993349738460642 8.892470259468585 9.772454021485274 8.667206536876837 C9.772454021485274 8.667206536876837 6.112358882352211 4.999013487580731 6.112358882352211 4.999013487580731 Z" style="stroke-width: 0; stroke-linecap: butt; stroke-linejoin: miter; fill: rgb(113, 134, 153);" vector-effect="non-scaling-stroke"/></g></g></svg>