<svg xmlns="http://www.w3.org/2000/svg" width="13.714" height="18" viewBox="0 0 13.714 18">
  <path id="Ic-Unlocker" d="M161.714-902a1.65,1.65,0,0,1-1.211-.5,1.65,1.65,0,0,1-.5-1.211v-8.571a1.651,1.651,0,0,1,.5-1.211,1.651,1.651,0,0,1,1.211-.5h7.714v-1.714a2.479,2.479,0,0,0-.75-1.821,2.48,2.48,0,0,0-1.821-.75,2.429,2.429,0,0,0-1.575.546,2.672,2.672,0,0,0-.911,1.361.852.852,0,0,1-.354.482,1.025,1.025,0,0,1-.589.182.849.849,0,0,1-.611-.236.574.574,0,0,1-.182-.557,4.323,4.323,0,0,1,1.479-2.486A4.093,4.093,0,0,1,166.857-920a4.13,4.13,0,0,1,3.032,1.254,4.131,4.131,0,0,1,1.254,3.032V-914H172a1.651,1.651,0,0,1,1.211.5,1.651,1.651,0,0,1,.5,1.211v8.571a1.65,1.65,0,0,1-.5,1.211A1.65,1.65,0,0,1,172-902Zm0-1.714H172v-8.571H161.714Zm5.143-2.571a1.651,1.651,0,0,0,1.211-.5,1.651,1.651,0,0,0,.5-1.211,1.651,1.651,0,0,0-.5-1.211,1.65,1.65,0,0,0-1.211-.5,1.65,1.65,0,0,0-1.211.5,1.651,1.651,0,0,0-.5,1.211,1.651,1.651,0,0,0,.5,1.211A1.651,1.651,0,0,0,166.857-906.286Zm-5.143,2.571v0Z" transform="translate(-160 920)"/>
</svg>
