<svg id="Layer_1" data-name="Layer 1" xmlns="http://www.w3.org/2000/svg" viewBox="0 0 414.39 446.26"><path d="M256,256c52.52,0,98.77-49.52,103.27-110.39,2.26-30.58-7.3-59.1-26.93-80.29C313,44.4,285.88,32.87,256,32.87c-30,0-57.21,11.46-76.5,32.26-19.51,21-29,49.6-26.78,80.46C157.15,206.47,203.48,256,256,256Z" transform="translate(-48.8 -32.87)"/><path d="M462.57,439c-8.4-46.64-34.64-85.82-75.88-113.31-36.64-24.41-83.05-37.85-130.69-37.85S162,301.31,125.31,325.73C84.07,353.23,57.83,392.41,49.43,439c-1.94,10.69.67,21.26,7.15,29a30.87,30.87,0,0,0,24.1,11.09H431.32a30.86,30.86,0,0,0,24.1-11.1C461.9,460.29,464.51,449.72,462.57,439Z" transform="translate(-48.8 -32.87)"/></svg>